<?xml version="1.0" standalone="no"?><!DOCTYPE svg PUBLIC "-//W3C//DTD SVG 1.1//EN" "http://www.w3.org/Graphics/SVG/1.1/DTD/svg11.dtd"><svg t="1498047824400" class="icon" style="" viewBox="0 0 1024 1024" version="1.1" xmlns="http://www.w3.org/2000/svg" p-id="1433" xmlns:xlink="http://www.w3.org/1999/xlink" width="200" height="200"><defs><style type="text/css"></style></defs><path d="M883.6096 571.42272c0 186.50112-151.72608 338.2272-338.2272 338.2272s-338.2272-151.72608-338.2272-338.2272c0-61.65504 16.77312-122.03008 48.4864-174.56128l88.24832 53.26848c-22.016 36.47488-33.64864 78.41792-33.65888 121.30304 0 129.65888 105.48224 235.14112 235.14112 235.14112s235.14112-105.48224 235.14112-235.14112c0-124.96896-98.05824-227.1744-221.22496-234.43456l-50.42176 0 42.46528 107.49952c1.42336 3.60448 0.26624 7.71072-2.82624 10.0352-3.09248 2.33472-7.36256 2.32448-10.43456-0.04096L326.92224 292.13696c-2.11968-1.6384-3.36896-4.13696-3.36896-6.83008 0-2.68288 1.24928-5.20192 3.36896-6.83008l211.15904-162.34496c1.54624-1.19808 3.38944-1.78176 5.24288-1.78176 1.83296 0 3.64544 0.57344 5.19168 1.73056 3.09248 2.32448 4.2496 6.44096 2.82624 10.04544l-42.46528 107.48928 36.51584-0.43008c13.056 0 56.38144 4.39296 63.51872 6.07232C765.1328 269.08672 883.6096 406.64064 883.6096 571.42272z" p-id="1434"></path></svg>